<?xml version="1.0" encoding="UTF-8"?>
<svg width="205px" height="54px" viewBox="0 0 205 54" version="1.1" xmlns="http://www.w3.org/2000/svg" xmlns:xlink="http://www.w3.org/1999/xlink">
    <!-- Generator: Sketch 46.2 (44496) - http://www.bohemiancoding.com/sketch -->
    <title>Page 1</title>
    <desc>Created with Sketch.</desc>
    <defs>
        <polygon id="path-1" points="16.08 0.3672 16.08 20.4782 0.1937 20.4782 0.1937 0.3672 16.08 0.3672"></polygon>
        <polygon id="path-3" points="26.81825 0.361 0 0.361 0 54 26.81825 54 53.6365 54 53.6365 0.361 26.81825 0.361"></polygon>
    </defs>
    <g id="Page-1" stroke="none" stroke-width="1" fill="none" fill-rule="evenodd">
        <g id="Home" transform="translate(-250.000000, -40.000000)">
            <g id="Group-2" transform="translate(246.000000, 39.000000)">
                <g id="Page-1" transform="translate(4.000000, 0.000000)">
                    <path d="M95.6826,19.3208 C95.9896,19.5908 96.1416,19.9438 96.1416,20.3828 C96.1416,20.5368 96.1146,20.7008 96.0546,20.8718 L90.1076,38.2538 C90.0306,38.5248 89.8736,38.7288 89.6336,38.8738 C89.3936,39.0158 89.1416,39.0958 88.8716,39.1148 C88.6036,39.1148 88.3466,39.0408 88.0976,38.8868 C87.8476,38.7338 87.6656,38.5128 87.5516,38.2278 L83.0686,27.7408 L78.6156,38.2278 C78.5006,38.5128 78.3186,38.7338 78.0706,38.8868 C77.8206,39.0408 77.5536,39.1148 77.2646,39.1148 C76.9966,39.0958 76.7476,39.0118 76.5176,38.8588 C76.2866,38.7068 76.1346,38.5048 76.0586,38.2538 L70.1116,20.8718 C70.0526,20.7008 70.0246,20.5368 70.0246,20.3828 C70.0246,19.9628 70.1826,19.6148 70.5006,19.3348 C70.8156,19.0588 71.1536,18.9208 71.5176,18.9208 C71.8256,18.9208 72.1046,18.9998 72.3516,19.1638 C72.6016,19.3258 72.7646,19.5398 72.8386,19.8098 L77.6966,34.2038 L81.8626,23.9738 C81.9756,23.7078 82.1486,23.4968 82.3786,23.3428 C82.6096,23.1888 82.8686,23.1138 83.1536,23.1138 C83.4416,23.1138 83.7016,23.1888 83.9306,23.3428 C84.1616,23.4968 84.3336,23.7078 84.4466,23.9738 L88.5006,34.2038 L93.3276,19.8098 C93.4026,19.5218 93.5646,19.3008 93.8156,19.1488 C94.0626,18.9958 94.3506,18.9208 94.6756,18.9208 C95.0396,18.9208 95.3766,19.0518 95.6826,19.3208" id="Fill-1" fill="#444749"></path>
                    <path d="M112.6762,36.8755 C112.9342,37.1455 113.0642,37.4605 113.0642,37.8245 C113.0642,38.2055 112.9342,38.5195 112.6762,38.7565 C112.4162,38.9985 112.0872,39.1195 111.6852,39.1195 L101.6882,39.1195 C101.3022,39.1195 100.9772,38.9825 100.7092,38.7155 C100.4392,38.4485 100.3062,38.1225 100.3062,37.7365 L100.3062,20.3845 C100.3062,20.0005 100.4392,19.6745 100.7092,19.4095 C100.9772,19.1385 101.3022,19.0035 101.6882,19.0035 L111.6852,19.0035 C112.0872,19.0035 112.4162,19.1275 112.6762,19.3785 C112.9342,19.6275 113.0642,19.9535 113.0642,20.3545 C113.0642,20.7395 112.9342,21.0495 112.6762,21.2895 C112.4162,21.5295 112.0872,21.6475 111.6852,21.6475 L103.1542,21.6475 L103.1542,27.5115 L110.3922,27.5115 C110.7962,27.5115 111.1262,27.6325 111.3822,27.8835 C111.6412,28.1295 111.7722,28.4485 111.7722,28.8325 C111.7722,29.2335 111.6412,29.5495 111.3822,29.7775 C111.1262,30.0105 110.7962,30.1225 110.3922,30.1225 L103.1542,30.1225 L103.1542,36.4755 L111.6852,36.4755 C112.0872,36.4755 112.4162,36.6085 112.6762,36.8755" id="Fill-3" fill="#444749"></path>
                    <path d="M142.4555,19.3921 C142.7225,19.6511 142.8555,19.9821 142.8555,20.3841 L142.8555,37.7091 C142.8375,38.1111 142.6925,38.4491 142.4295,38.7151 C142.1565,38.9821 141.8105,39.1171 141.3905,39.1171 C141.0105,39.1171 140.6775,38.9821 140.4005,38.7151 C140.1235,38.4491 139.9835,38.1111 139.9835,37.7091 L139.9835,30.2691 L129.7845,30.2691 L129.7845,37.7091 C129.7845,38.1111 129.6425,38.4491 129.3545,38.7151 C129.0665,38.9821 128.7295,39.1171 128.3495,39.1171 C127.9265,39.1171 127.5875,38.9821 127.3285,38.7151 C127.0665,38.4491 126.9385,38.1111 126.9385,37.7091 L126.9385,20.3841 C126.9385,20.0011 127.0745,19.6751 127.3425,19.4061 C127.6095,19.1411 127.9585,19.0061 128.3775,19.0061 C128.7605,19.0061 129.0895,19.1411 129.3675,19.4061 C129.6455,19.6751 129.7845,20.0011 129.7845,20.3841 L129.7845,27.6261 L139.9835,27.6261 L139.9835,20.3841 C139.9835,20.0011 140.1285,19.6751 140.4145,19.4061 C140.7025,19.1411 141.0395,19.0061 141.4205,19.0061 C141.8425,19.0061 142.1845,19.1331 142.4555,19.3921" id="Fill-5" fill="#444749"></path>
                    <path d="M163.1996,25.167 C162.6236,24.01 161.8266,23.098 160.7966,22.439 C159.7736,21.778 158.6086,21.449 157.3106,21.449 C156.0076,21.449 154.8426,21.774 153.8186,22.423 C152.7916,23.076 151.9926,23.98 151.4206,25.141 C150.8456,26.297 150.5566,27.605 150.5566,29.059 C150.5566,30.498 150.8456,31.795 151.4206,32.955 C151.9926,34.112 152.7916,35.023 153.8186,35.682 C154.8426,36.344 156.0076,36.673 157.3106,36.673 C158.6086,36.673 159.7736,36.344 160.7966,35.682 C161.8266,35.023 162.6236,34.112 163.1996,32.955 C163.7766,31.795 164.0616,30.498 164.0616,29.059 C164.0616,27.624 163.7766,26.327 163.1996,25.167 M165.7716,34.319 C164.9376,35.891 163.7816,37.13 162.3096,38.041 C160.8346,38.949 159.1696,39.406 157.3106,39.406 C155.4496,39.406 153.7826,38.949 152.3096,38.041 C150.8346,37.13 149.6816,35.891 148.8476,34.319 C148.0146,32.75 147.5976,30.996 147.5976,29.059 C147.5976,27.126 148.0146,25.374 148.8476,23.803 C149.6816,22.231 150.8346,20.992 152.3096,20.081 C153.7826,19.172 155.4496,18.718 157.3106,18.718 C159.1696,18.718 160.8346,19.172 162.3096,20.081 C163.7816,20.992 164.9376,22.231 165.7716,23.803 C166.6056,25.374 167.0196,27.126 167.0196,29.059 C167.0196,30.996 166.6056,32.75 165.7716,34.319" id="Fill-7" fill="#444749"></path>
                    <path d="M174.1752,38.813 C173.1012,38.424 172.0752,37.788 171.1002,36.903 C170.6962,36.557 170.4962,36.167 170.4962,35.726 C170.4962,35.381 170.6302,35.069 170.8972,34.792 C171.1662,34.515 171.4832,34.376 171.8472,34.376 C172.1712,34.376 172.4512,34.482 172.6792,34.691 C173.4472,35.4 174.2362,35.923 175.0482,36.258 C175.8642,36.595 176.7882,36.76 177.8232,36.76 C179.0302,36.76 180.0472,36.482 180.8822,35.928 C181.7142,35.373 182.1322,34.673 182.1322,33.831 C182.1122,32.834 181.6972,32.062 180.8822,31.518 C180.0682,30.973 178.8292,30.516 177.1612,30.154 C175.1902,29.75 173.6692,29.089 172.6112,28.17 C171.5462,27.25 171.0122,25.977 171.0122,24.35 C171.0122,23.218 171.3092,22.227 171.9042,21.376 C172.4972,20.524 173.3222,19.867 174.3752,19.406 C175.4262,18.946 176.6162,18.718 177.9382,18.718 C179.1262,18.718 180.2462,18.908 181.2982,19.291 C182.3542,19.676 183.2032,20.184 183.8562,20.813 C184.2952,21.197 184.5172,21.609 184.5172,22.049 C184.5172,22.395 184.3872,22.701 184.1302,22.969 C183.8682,23.237 183.5592,23.374 183.1952,23.374 C182.9292,23.374 182.7042,23.294 182.5342,23.14 C182.0342,22.642 181.3442,22.221 180.4682,21.879 C179.5872,21.534 178.7442,21.361 177.9382,21.361 C176.6542,21.361 175.6342,21.624 174.8782,22.149 C174.1222,22.678 173.7422,23.374 173.7422,24.235 C173.7422,25.173 174.1222,25.89 174.8782,26.388 C175.6342,26.886 176.7602,27.308 178.2542,27.655 C179.7482,27.98 180.9702,28.361 181.9172,28.802 C182.8652,29.242 183.5972,29.856 184.1162,30.642 C184.6312,31.426 184.8932,32.452 184.8932,33.713 C184.8932,34.826 184.5792,35.812 183.9572,36.675 C183.3352,37.535 182.4862,38.206 181.4132,38.684 C180.3412,39.164 179.1622,39.405 177.8792,39.405 C176.4832,39.405 175.2442,39.206 174.1752,38.813" id="Fill-9" fill="#444749"></path>
                    <g id="Group-13" transform="translate(188.000000, 18.639000)">
                        <mask id="mask-2" fill="white">
                            <use xlink:href="#path-1"></use>
                        </mask>
                        <g id="Clip-12"></g>
                        <path d="M15.6967,0.7252 C15.9547,0.9672 16.0807,1.2842 16.0807,1.6872 C16.0807,2.0882 15.9547,2.4042 15.6967,2.6382 C15.4357,2.8672 15.1067,2.9812 14.7047,2.9812 L9.5887,2.9812 L9.5887,19.0982 C9.5887,19.4812 9.4497,19.8062 9.1737,20.0762 C8.8947,20.3422 8.5467,20.4782 8.1247,20.4782 C7.7037,20.4782 7.3557,20.3422 7.0767,20.0762 C6.7967,19.8062 6.6597,19.4812 6.6597,19.0982 L6.6597,2.9812 L1.5757,2.9812 C1.1707,2.9812 0.8387,2.8632 0.5837,2.6212 C0.3237,2.3822 0.1937,2.0622 0.1937,1.6602 C0.1937,1.2752 0.3237,0.9672 0.5837,0.7252 C0.8387,0.4872 1.1707,0.3672 1.5757,0.3672 L14.7047,0.3672 C15.1067,0.3672 15.4357,0.4872 15.6967,0.7252" id="Fill-11" fill="#444749" mask="url(#mask-2)"></path>
                    </g>
                    <polygon id="Fill-14" fill="#2FB9AF" points="23.1772 29.8901 23.1772 32.5931 31.0562 32.5931 31.0562 29.8421 27.1162 22.6901"></polygon>
                    <g id="Group-18" transform="translate(0.000000, 0.639000)">
                        <mask id="mask-4" fill="white">
                            <use xlink:href="#path-3"></use>
                        </mask>
                        <g id="Clip-17"></g>
                        <path d="M36.5805,17.692 L33.6735,28.973 L33.6735,37.818 C33.6595,38.184 33.5285,38.492 33.2835,38.736 C33.0375,38.982 32.7235,39.101 32.3395,39.101 C31.9905,39.101 31.6875,38.982 31.4345,38.736 C31.1825,38.492 31.0565,38.184 31.0565,37.818 L31.0565,34.366 L23.1775,34.366 L23.1775,37.818 C23.1775,38.184 23.0495,38.492 22.7855,38.736 C22.5255,38.982 22.2185,39.101 21.8695,39.101 C21.4855,39.101 21.1765,38.982 20.9395,38.736 C20.7015,38.492 20.5855,38.184 20.5855,37.818 L20.5855,28.973 L17.6785,17.692 C17.6265,17.535 17.5995,17.386 17.5995,17.247 C17.5995,16.862 17.7455,16.545 18.0335,16.292 C18.3195,16.037 18.6345,15.912 18.9635,15.912 C19.2435,15.912 19.4945,15.985 19.7235,16.133 C19.9525,16.283 20.0985,16.478 20.1695,16.722 L22.2155,25.802 L26.0175,18.616 C26.1205,18.373 26.2775,18.18 26.4875,18.04 C26.6985,17.901 26.9345,17.83 27.1975,17.83 C27.4585,17.83 27.6945,17.901 27.9045,18.04 C28.1135,18.18 28.2705,18.373 28.3755,18.616 L32.0695,25.802 L34.0925,16.722 C34.1615,16.46 34.3115,16.26 34.5365,16.119 C34.7645,15.979 35.0245,15.912 35.3215,15.912 C35.6565,15.912 35.9615,16.031 36.2425,16.277 C36.5195,16.521 36.6625,16.845 36.6625,17.247 C36.6625,17.386 36.6355,17.535 36.5805,17.692 M26.8175,0.361 C12.0065,0.361 -0.0005,12.37 -0.0005,27.18 C-0.0005,41.99 12.0065,54 26.8175,54 C41.6285,54 53.6365,41.99 53.6365,27.18 C53.6365,12.37 41.6285,0.361 26.8175,0.361" id="Fill-16" fill="#2FB9AF" mask="url(#mask-4)"></path>
                    </g>
                </g>
            </g>
        </g>
    </g>
</svg>